<svg width="294" height="116" xmlns="http://www.w3.org/2000/svg">
  <g fill="none" fill-rule="evenodd">
    <circle fill="#E00000" fill-rule="nonzero" cx="58" cy="58" r="58"/>
    <path d="M78.5 62a20 20 0 01-20.2-18c.6 3.7 4 6.3 7.8 6.3s7-2.8 7.7-6.4v1.4c0 .7 0 1.2-.2 2.1H85c2.6 0 4.6-2.2 4.6-4.7 0-1.6-.8-3.2-2-3.9L60.5 25.5c1-2.5 2.2-4.8 3.7-7A32.2 32.2 0 0026 50.1 51.7 51.7 0 0058.3 98 51.7 51.7 0 0090 58.4a20 20 0 01-11.5 3.7zm-10-31c1.3 0 2.5 1.2 2.5 2.5S69.8 36 68.5 36a2.5 2.5 0 01-2.5-2.5c0-1.3 1.2-2.5 2.5-2.5z" fill="#FFF" fill-rule="nonzero"/>
    <g fill="#560000" font-family="GothamMedium, Gotham Medium" font-size="40">
      <text transform="translate(141 20)">
        <tspan x="0" y="29">Twente</tspan>
      </text>
      <text transform="translate(141 20)">
        <tspan x="0" y="74">Creates</tspan>
      </text>
    </g>
  </g>
</svg>