<svg width="292" height="116" xmlns="http://www.w3.org/2000/svg">
  <g fill="none" fill-rule="evenodd">
    <circle fill="#E00000" cx="58" cy="58" r="58"/>
    <path d="M78.5 62a20 20 0 01-20.2-18c.6 3.7 4 6.3 7.8 6.3s7-2.8 7.7-6.4v1.4c0 .7 0 1.2-.2 2.1H85c2.6 0 4.6-2.2 4.6-4.7 0-1.6-.8-3.2-2-3.9L60.5 25.5c1-2.5 2.2-4.8 3.7-7A32.2 32.2 0 0026 50.1 51.7 51.7 0 0058.3 98 51.7 51.7 0 0090 58.4a20 20 0 01-11.5 3.7zm-10-31c1.3 0 2.5 1.2 2.5 2.5S69.8 36 68.5 36a2.5 2.5 0 01-2.5-2.5c0-1.3 1.2-2.5 2.5-2.5z" fill="#FFF" fill-rule="nonzero"/>
    <path d="M149.5 27.6h-8.9V23h22.7v4.6h-8.9V51h-5V27.6zm16.7 2.3h5l4.2 14.5 4.7-14.6h4.1l4.7 14.6 4.3-14.5h4.9l-7 21.3h-4.3l-4.7-14.5-4.7 14.5H173l-6.8-21.3zm50.7 9l-.5-2.1c-.3-.7-.7-1.3-1.1-1.8-.5-.5-1-.9-1.6-1.2a5 5 0 00-2.2-.4c-1.5 0-2.7.5-3.7 1.5a7 7 0 00-1.8 4H217zM212 51.6c-1.5 0-3-.3-4.3-.8a10.4 10.4 0 01-6.6-10.2c0-1.6.3-3 .8-4.3a10 10 0 019.6-6.7 9 9 0 017.6 3.4c.8 1 1.4 2.2 1.8 3.6a14.5 14.5 0 01.6 5.7h-15.5c.2 1.7 1 3 2 4a6 6 0 004 1.3 7 7 0 003.2-.6c.9-.4 1.7-1 2.6-1.9l2.8 2.5c-1 1.2-2.2 2.2-3.6 2.9-1.4.7-3 1-5 1zm14.5-21.6h4.8v3.3l1.1-1.5a7.4 7.4 0 015.5-2.3 7 7 0 015.6 2.2c1.3 1.5 2 3.5 2 6V51h-5V39c0-1.7-.3-3-1.1-3.8a4.2 4.2 0 00-3.3-1.4c-1.5 0-2.6.5-3.5 1.4-.9 1-1.3 2.2-1.3 3.9V51h-4.8V29.9zm31.8 21.5c-.8 0-1.7-.1-2.4-.4a4.6 4.6 0 01-3.2-3c-.3-.7-.4-1.7-.4-2.8V34h-2.7V30h2.7V24h4.8v5.8h5.7V34h-5.7v10.4c0 1 .2 1.6.7 2 .4.4 1 .6 1.9.6 1 0 2-.2 3-.7v4a8.4 8.4 0 01-4.4 1zM282.2 39c0-.8-.2-1.5-.5-2.2-.2-.7-.6-1.3-1-1.8-.5-.5-1-.9-1.7-1.2a5 5 0 00-2.1-.4c-1.5 0-2.7.5-3.7 1.5a7 7 0 00-1.8 4h10.8zm-4.8 12.5c-1.5 0-2.9-.3-4.2-.8a10.4 10.4 0 01-6.6-10.2c0-1.6.3-3 .8-4.3a10 10 0 019.6-6.7 9 9 0 017.6 3.4c.7 1 1.4 2.2 1.8 3.6a14.5 14.5 0 01.6 5.7h-15.6c.3 1.7 1 3 2.1 4a6 6 0 004 1.3 7 7 0 003.1-.6c1-.4 1.8-1 2.6-1.9l2.9 2.5c-1 1.2-2.2 2.2-3.6 2.9-1.4.7-3.1 1-5 1zm-121.8 45a14.2 14.2 0 01-10.2-4.2 14.7 14.7 0 01-4-10.2V82a14.8 14.8 0 014-10.2 14 14 0 0110.4-4.3 17.7 17.7 0 016.4 1.2 19 19 0 014.6 3.1l-3.2 3.7c-1.1-1-2.3-1.9-3.6-2.5-1.2-.6-2.6-1-4.2-1a8.8 8.8 0 00-6.7 3c-.8.8-1.4 1.9-1.9 3-.5 1.3-.7 2.6-.7 4s.2 2.6.7 3.9c.5 1.2 1 2.2 2 3.1a9 9 0 006.6 3c1.7 0 3.1-.4 4.4-1 1.2-.7 2.4-1.6 3.6-2.7l3.2 3.2a18 18 0 01-4.8 3.6c-1 .5-2 .8-3 1-1.1.3-2.3.4-3.6.4zm16-21.6h4.8v4.7a9.3 9.3 0 012.8-3.8c1.3-1 2.8-1.4 4.7-1.3v5.1h-.3c-1 0-2 .2-3 .5-.8.4-1.6.9-2.2 1.6a7 7 0 00-1.5 2.6c-.3 1-.5 2.3-.5 3.7v8h-4.8V74.9zm31 9l-.6-2.1c-.2-.7-.6-1.3-1-1.8-.5-.5-1-.9-1.7-1.2a5 5 0 00-2.1-.4c-1.5 0-2.7.5-3.7 1.5a7 7 0 00-1.8 4h10.9zm-4.8 12.6c-1.6 0-3-.3-4.3-.8a10.4 10.4 0 01-6.6-10.2c0-1.6.3-3 .8-4.3a10 10 0 019.6-6.7 9 9 0 017.6 3.4c.8 1 1.4 2.2 1.8 3.6a14.5 14.5 0 01.6 5.7h-15.5c.2 1.7 1 3 2 4a6 6 0 004 1.3 7 7 0 003.2-.6c.8-.4 1.7-1 2.6-1.9l2.8 2.5c-1 1.2-2.2 2.2-3.6 2.9-1.4.7-3 1-5 1zm27.5-9.3a12.4 12.4 0 00-4.9-.9c-1.5 0-2.7.3-3.5.9-.9.6-1.3 1.4-1.3 2.4s.4 1.9 1.2 2.4a5 5 0 002.9.8c.8 0 1.5-.1 2.2-.3.7-.2 1.3-.5 1.8-1a4 4 0 001.6-3.2v-1.1zm-.1 8.8v-2.6a8.7 8.7 0 01-6.8 3c-1 0-2-.1-3-.4-.9-.3-1.7-.7-2.3-1.2a6.2 6.2 0 01-2.3-4.9 6 6 0 012.4-5.2c.8-.7 1.7-1 2.7-1.4a18.8 18.8 0 019.3.5v-.4c0-1.5-.4-2.6-1.3-3.4-1-.7-2.2-1.1-3.9-1.1-1.2 0-2.3.1-3.2.3l-2.8 1-1.4-3.9c1.2-.5 2.4-1 3.6-1.3 1.3-.3 2.7-.4 4.5-.4 3.1 0 5.5.7 7 2.3a9 9 0 012.3 6.6V96h-4.8zm17.6.4c-.9 0-1.7-.1-2.4-.4a4.6 4.6 0 01-3.2-3c-.3-.7-.5-1.7-.5-2.8V79H234V75h2.7V69h4.9v5.8h5.6V79h-5.6v10.4c0 1 .2 1.6.6 2 .5.4 1.1.6 2 .6 1 0 2-.2 3-.7v4a8.4 8.4 0 01-4.4 1zM266.6 84c0-.8-.3-1.5-.5-2.2a5.1 5.1 0 00-2.7-3 5 5 0 00-2.2-.4c-1.5 0-2.7.5-3.7 1.5a7 7 0 00-1.7 4h10.8zm-4.8 12.5c-1.5 0-3-.3-4.3-.8a10.4 10.4 0 01-6.5-10.2 10.8 10.8 0 012.9-7.8 10 10 0 017.4-3.3c1.7 0 3.1.3 4.4 1a9 9 0 013.2 2.4c.8 1 1.4 2.3 1.9 3.7a14.5 14.5 0 01.5 5.7h-15.5c.3 1.7 1 3 2 4a6 6 0 004 1.3 7 7 0 003.2-.6c.9-.4 1.7-1 2.6-1.9l2.8 2.5c-1 1.2-2.2 2.2-3.6 2.9-1.4.7-3 1-5 1zm21.7-.1a14.2 14.2 0 01-9-3.2l2.2-3.2a14 14 0 003.5 1.9c1.2.4 2.3.7 3.4.7a4 4 0 002.5-.7c.5-.4.8-1 .8-1.6v-.1c0-.4-.1-.7-.4-1-.2-.3-.6-.6-1-.8l-1.5-.6a96.7 96.7 0 00-4.1-1.3c-.8-.3-1.5-.7-2.2-1.2a5 5 0 01-2.1-4.3 6 6 0 014.6-6c.9-.3 1.9-.5 3-.5A14.5 14.5 0 01291 77l-2 3.5c-1-.7-2-1.1-3.1-1.5-1-.4-2-.5-2.9-.5-1 0-1.7.2-2.2.6-.5.4-.8.9-.8 1.5 0 .4.2.8.4 1l1.1.8 1.5.6a46.6 46.6 0 004.1 1.5c.8.3 1.5.7 2.1 1.1.6.5 1.2 1 1.6 1.7.4.7.6 1.5.6 2.5 0 1.2-.2 2.2-.6 3-.4.8-1 1.5-1.7 2-.7.6-1.5 1-2.5 1.3-1 .3-2 .4-3 .4z" fill="#560000" fill-rule="nonzero"/>
  </g>
</svg>